<svg xmlns="http://www.w3.org/2000/svg" width="32" height="32" viewBox="0 0 24 24"><!-- Icon from IconaMoon by Dariush Habibpour - https://creativecommons.org/licenses/by/4.0/ --><g fill="none"><path fill="currentColor" d="M4 7h16v7a2 2 0 0 1-2 2H6a2 2 0 0 1-2-2z" opacity=".16"/><path stroke="currentColor" stroke-linejoin="round" stroke-width="2" d="M5 16h14v3a2 2 0 0 1-2 2H7a2 2 0 0 1-2-2zM4 7h16v7a2 2 0 0 1-2 2H6a2 2 0 0 1-2-2z"/><path stroke="currentColor" stroke-linejoin="round" stroke-width="3" d="M12 12h.01v.01H12z"/><path stroke="currentColor" stroke-linejoin="round" stroke-width="2" d="M9 5a2 2 0 0 1 2-2h2a2 2 0 0 1 2 2v2H9z"/></g></svg>
